# Blender 4.1.1
# www.blender.org
mtllib net.mtl
o Torus.001
v 2.620000 0.000000 0.000000
v 2.433435 1.476865 0.000000
v 2.131566 0.912753 0.000000
v 2.131566 -0.912753 0.000000
v 2.433435 -1.476865 0.000000
v 1.310000 0.000000 -2.268987
v 1.216717 1.476865 -2.107416
v 1.065783 0.912753 -1.845990
v 1.065783 -0.912753 -1.845990
v 1.216717 -1.476865 -2.107416
v -1.310000 0.000000 -2.268987
v -1.216717 1.476865 -2.107417
v -1.065782 0.912753 -1.845990
v -1.065782 -0.912753 -1.845990
v -1.216717 -1.476865 -2.107417
v -2.620000 0.000000 -0.000000
v -2.433435 1.476865 -0.000000
v -2.131566 0.912753 -0.000000
v -2.131566 -0.912753 -0.000000
v -2.433435 -1.476865 -0.000000
v -1.310000 0.000000 2.268987
v -1.216717 1.476865 2.107417
v -1.065782 0.912753 1.845990
v -1.065782 -0.912753 1.845990
v -1.216717 -1.476865 2.107417
v 1.310000 0.000000 2.268987
v 1.216717 1.476865 2.107416
v 1.065783 0.912753 1.845990
v 1.065783 -0.912753 1.845990
v 1.216717 -1.476865 2.107416
vn 0.8609 0.1088 -0.4970
vn -0.7857 0.4205 0.4537
vn -0.8660 -0.0000 0.5000
vn -0.7857 -0.4205 0.4537
vn 0.8609 -0.1088 -0.4970
vn -0.0000 0.1088 -0.9941
vn -0.0000 0.4205 0.9073
vn -0.0000 -0.0000 1.0000
vn -0.0000 -0.4205 0.9073
vn -0.0000 -0.1088 -0.9941
vn -0.8609 0.1088 -0.4970
vn 0.7857 0.4205 0.4537
vn 0.8660 -0.0000 0.5000
vn 0.7857 -0.4205 0.4537
vn -0.8609 -0.1088 -0.4970
vn -0.8609 0.1088 0.4970
vn 0.7857 0.4205 -0.4537
vn 0.8660 -0.0000 -0.5000
vn 0.7857 -0.4205 -0.4537
vn -0.8609 -0.1088 0.4970
vn -0.0000 0.1088 0.9941
vn -0.0000 0.4205 -0.9073
vn -0.0000 -0.0000 -1.0000
vn -0.0000 -0.4205 -0.9073
vn -0.0000 -0.1088 0.9941
vn 0.8609 0.1088 0.4970
vn -0.7857 0.4205 -0.4537
vn -0.8660 -0.0000 -0.5000
vn -0.7857 -0.4205 -0.4537
vn 0.8609 -0.1088 0.4970
vt 0.500000 0.600000
vt 0.666667 0.600000
vt 0.666667 0.800000
vt 0.500000 0.800000
vt 0.666667 1.000000
vt 0.500000 1.000000
vt 0.500000 0.000000
vt 0.666667 0.000000
vt 0.666667 0.200000
vt 0.500000 0.200000
vt 0.666667 0.400000
vt 0.500000 0.400000
vt 0.833333 0.600000
vt 0.833333 0.800000
vt 0.833333 1.000000
vt 0.833333 0.000000
vt 0.833333 0.200000
vt 0.833333 0.400000
vt 1.000000 0.600000
vt 1.000000 0.800000
vt 1.000000 1.000000
vt 1.000000 0.000000
vt 1.000000 0.200000
vt 1.000000 0.400000
vt -0.000000 0.600000
vt 0.166667 0.600000
vt 0.166667 0.800000
vt -0.000000 0.800000
vt 0.166667 1.000000
vt -0.000000 1.000000
vt -0.000000 0.000000
vt 0.166667 0.000000
vt 0.166667 0.200000
vt -0.000000 0.200000
vt 0.166667 0.400000
vt -0.000000 0.400000
vt 0.333333 0.600000
vt 0.333333 0.800000
vt 0.333333 1.000000
vt 0.333333 0.000000
vt 0.333333 0.200000
vt 0.333333 0.400000
s 0
f 1/1/1 6/2/1 7/3/1 2/4/1
f 2/4/2 7/3/2 8/5/2 3/6/2
f 3/7/3 8/8/3 9/9/3 4/10/3
f 4/10/4 9/9/4 10/11/4 5/12/4
f 5/12/5 10/11/5 6/2/5 1/1/5
f 6/2/6 11/13/6 12/14/6 7/3/6
f 7/3/7 12/14/7 13/15/7 8/5/7
f 8/8/8 13/16/8 14/17/8 9/9/8
f 9/9/9 14/17/9 15/18/9 10/11/9
f 10/11/10 15/18/10 11/13/10 6/2/10
f 11/13/11 16/19/11 17/20/11 12/14/11
f 12/14/12 17/20/12 18/21/12 13/15/12
f 13/16/13 18/22/13 19/23/13 14/17/13
f 14/17/14 19/23/14 20/24/14 15/18/14
f 15/18/15 20/24/15 16/19/15 11/13/15
f 16/25/16 21/26/16 22/27/16 17/28/16
f 17/28/17 22/27/17 23/29/17 18/30/17
f 18/31/18 23/32/18 24/33/18 19/34/18
f 19/34/19 24/33/19 25/35/19 20/36/19
f 20/36/20 25/35/20 21/26/20 16/25/20
f 21/26/21 26/37/21 27/38/21 22/27/21
f 22/27/22 27/38/22 28/39/22 23/29/22
f 23/32/23 28/40/23 29/41/23 24/33/23
f 24/33/24 29/41/24 30/42/24 25/35/24
f 25/35/25 30/42/25 26/37/25 21/26/25
f 26/37/26 1/1/26 2/4/26 27/38/26
f 27/38/27 2/4/27 3/6/27 28/39/27
f 28/40/28 3/7/28 4/10/28 29/41/28
f 29/41/29 4/10/29 5/12/29 30/42/29
f 30/42/30 5/12/30 1/1/30 26/37/30
